<svg width="699" height="140" viewBox="0 0 699 140" fill="none" xmlns="http://www.w3.org/2000/svg">
<path d="M8.448 114V24.4H25.344V98.64H66.304V114H8.448ZM92.927 115.792C88.4043 115.792 84.351 115.024 80.767 113.488C77.183 111.867 74.3243 109.563 72.191 106.576C70.143 103.504 69.119 99.792 69.119 95.44C69.119 91.088 70.143 87.4613 72.191 84.56C74.3243 81.5733 77.2257 79.3547 80.895 77.904C84.6497 76.368 88.9163 75.6 93.695 75.6H111.103V72.016C111.103 69.0293 110.164 66.5973 108.287 64.72C106.41 62.7573 103.423 61.776 99.327 61.776C95.3163 61.776 92.3297 62.7147 90.367 64.592C88.4043 66.384 87.1243 68.7307 86.527 71.632L71.679 66.64C72.703 63.3973 74.3243 60.4533 76.543 57.808C78.847 55.0773 81.8763 52.9013 85.631 51.28C89.471 49.5733 94.1217 48.72 99.583 48.72C107.946 48.72 114.559 50.8107 119.423 54.992C124.287 59.1733 126.719 65.232 126.719 73.168V96.848C126.719 99.408 127.914 100.688 130.303 100.688H135.423V114H124.671C121.514 114 118.911 113.232 116.863 111.696C114.815 110.16 113.791 108.112 113.791 105.552V105.424H111.359C111.018 106.448 110.25 107.813 109.055 109.52C107.86 111.141 105.983 112.592 103.423 113.872C100.863 115.152 97.3643 115.792 92.927 115.792ZM95.743 102.736C100.266 102.736 103.935 101.499 106.751 99.024C109.652 96.464 111.103 93.0933 111.103 88.912V87.632H94.847C91.8603 87.632 89.5137 88.272 87.807 89.552C86.1003 90.832 85.247 92.624 85.247 94.928C85.247 97.232 86.143 99.1093 87.935 100.56C89.727 102.011 92.3297 102.736 95.743 102.736ZM142.095 114V50.512H157.967V58.832H160.271C161.295 56.6133 163.215 54.5227 166.031 52.56C168.847 50.512 173.114 49.488 178.831 49.488C183.78 49.488 188.09 50.64 191.759 52.944C195.514 55.1627 198.415 58.2773 200.463 62.288C202.511 66.2133 203.535 70.8213 203.535 76.112V114H187.407V77.392C187.407 72.6133 186.212 69.0293 183.823 66.64C181.519 64.2507 178.191 63.056 173.839 63.056C168.89 63.056 165.05 64.72 162.319 68.048C159.588 71.2907 158.223 75.856 158.223 81.744V114H142.095ZM212.778 82.512V80.464C212.778 73.808 214.101 68.1333 216.746 63.44C219.391 58.6613 222.89 55.0347 227.242 52.56C231.679 50 236.501 48.72 241.706 48.72C247.509 48.72 251.903 49.744 254.89 51.792C257.877 53.84 260.053 55.9733 261.418 58.192H263.722V50.512H279.594V125.264C279.594 129.616 278.314 133.072 275.754 135.632C273.194 138.277 269.781 139.6 265.514 139.6H223.018V125.52H259.882C262.271 125.52 263.466 124.24 263.466 121.68V105.168H261.162C260.309 106.533 259.114 107.941 257.578 109.392C256.042 110.757 253.994 111.909 251.434 112.848C248.874 113.787 245.631 114.256 241.706 114.256C236.501 114.256 231.679 113.019 227.242 110.544C222.89 107.984 219.391 104.357 216.746 99.664C214.101 94.8853 212.778 89.168 212.778 82.512ZM246.314 100.176C251.263 100.176 255.402 98.5973 258.73 95.44C262.058 92.2827 263.722 87.8453 263.722 82.128V80.848C263.722 75.0453 262.058 70.608 258.73 67.536C255.487 64.3787 251.349 62.8 246.314 62.8C241.365 62.8 237.226 64.3787 233.898 67.536C230.57 70.608 228.906 75.0453 228.906 80.848V82.128C228.906 87.8453 230.57 92.2827 233.898 95.44C237.226 98.5973 241.365 100.176 246.314 100.176ZM299.267 139.6V125.52H333.827C336.216 125.52 337.411 124.24 337.411 121.68V105.68H335.107C334.424 107.131 333.358 108.581 331.907 110.032C330.456 111.483 328.494 112.677 326.019 113.616C323.544 114.555 320.387 115.024 316.547 115.024C311.598 115.024 307.246 113.915 303.491 111.696C299.822 109.392 296.963 106.235 294.915 102.224C292.867 98.2133 291.843 93.6053 291.843 88.4V50.512H307.971V87.12C307.971 91.8987 309.123 95.4827 311.427 97.872C313.816 100.261 317.187 101.456 321.539 101.456C326.488 101.456 330.328 99.8347 333.059 96.592C335.79 93.264 337.155 88.656 337.155 82.768V50.512H353.283V125.264C353.283 129.616 352.003 133.072 349.443 135.632C346.883 138.277 343.47 139.6 339.203 139.6H299.267Z" fill="white"/>
<path d="M380.868 115.204C378.861 115.204 377.17 114.545 375.794 113.226C374.475 111.907 373.816 110.216 373.816 108.152C373.816 106.088 374.475 104.425 375.794 103.164C377.17 101.845 378.861 101.186 380.868 101.186C382.875 101.186 384.537 101.845 385.856 103.164C387.232 104.483 387.92 106.145 387.92 108.152C387.92 110.216 387.232 111.907 385.856 113.226C384.537 114.545 382.875 115.204 380.868 115.204ZM416.676 115.204C411.286 115.204 406.814 114 403.26 111.592C399.705 109.184 397.526 105.543 396.724 100.67L404.98 98.692C405.438 101.043 406.212 102.906 407.302 104.282C408.391 105.658 409.738 106.633 411.344 107.206C413.006 107.779 414.784 108.066 416.676 108.066C419.485 108.066 421.635 107.521 423.126 106.432C424.674 105.343 425.448 103.938 425.448 102.218C425.448 100.498 424.731 99.2367 423.298 98.434C421.864 97.6313 419.743 96.972 416.934 96.456L414.01 95.94C411.143 95.424 408.534 94.6787 406.184 93.704C403.833 92.7293 401.97 91.382 400.594 89.662C399.218 87.942 398.53 85.7347 398.53 83.04C398.53 79.0267 400.02 75.9307 403.002 73.752C405.983 71.516 409.939 70.398 414.87 70.398C419.628 70.398 423.527 71.4873 426.566 73.666C429.662 75.7873 431.668 78.6827 432.586 82.352L424.33 84.674C423.814 82.094 422.724 80.288 421.062 79.256C419.399 78.1667 417.335 77.622 414.87 77.622C412.462 77.622 410.57 78.0807 409.194 78.998C407.818 79.858 407.13 81.0907 407.13 82.696C407.13 84.416 407.789 85.6773 409.108 86.48C410.484 87.2827 412.318 87.8847 414.612 88.286L417.622 88.802C420.66 89.318 423.441 90.0347 425.964 90.952C428.486 91.8693 430.464 93.188 431.898 94.908C433.388 96.628 434.134 98.9213 434.134 101.788C434.134 106.031 432.557 109.327 429.404 111.678C426.25 114.029 422.008 115.204 416.676 115.204ZM444.487 131.2V71.602H453.173V77.708H454.549C455.639 75.816 457.273 74.1247 459.451 72.634C461.687 71.1433 464.869 70.398 468.997 70.398C472.552 70.398 475.791 71.258 478.715 72.978C481.697 74.698 484.076 77.192 485.853 80.46C487.688 83.6707 488.605 87.5693 488.605 92.156V93.446C488.605 98.0327 487.717 101.96 485.939 105.228C484.162 108.439 481.783 110.904 478.801 112.624C475.82 114.344 472.552 115.204 468.997 115.204C466.245 115.204 463.923 114.86 462.031 114.172C460.139 113.484 458.62 112.624 457.473 111.592C456.327 110.503 455.409 109.385 454.721 108.238H453.345V131.2H444.487ZM466.417 107.464C470.316 107.464 473.498 106.231 475.963 103.766C478.429 101.301 479.661 97.7747 479.661 93.188V92.414C479.661 87.8847 478.4 84.3873 475.877 81.922C473.412 79.4567 470.259 78.224 466.417 78.224C462.633 78.224 459.48 79.4567 456.957 81.922C454.492 84.3873 453.259 87.8847 453.259 92.414V93.188C453.259 97.7747 454.492 101.301 456.957 103.766C459.48 106.231 462.633 107.464 466.417 107.464ZM512.739 115.204C509.7 115.204 506.977 114.688 504.569 113.656C502.218 112.624 500.326 111.105 498.893 109.098C497.517 107.091 496.829 104.655 496.829 101.788C496.829 98.864 497.517 96.456 498.893 94.564C500.326 92.6147 502.247 91.1527 504.655 90.178C507.12 89.2033 509.901 88.716 512.997 88.716H525.897V85.964C525.897 83.4987 525.152 81.5207 523.661 80.03C522.17 78.5393 519.877 77.794 516.781 77.794C513.742 77.794 511.42 78.5107 509.815 79.944C508.21 81.3773 507.149 83.2407 506.633 85.534L498.377 82.868C499.065 80.5747 500.154 78.5107 501.645 76.676C503.193 74.784 505.228 73.2647 507.751 72.118C510.274 70.9713 513.312 70.398 516.867 70.398C522.371 70.398 526.7 71.8027 529.853 74.612C533.006 77.4213 534.583 81.406 534.583 86.566V104.024C534.583 105.744 535.386 106.604 536.991 106.604H540.603V114H533.981C531.974 114 530.34 113.484 529.079 112.452C527.818 111.42 527.187 110.015 527.187 108.238V107.98H525.897C525.438 108.84 524.75 109.843 523.833 110.99C522.916 112.137 521.568 113.14 519.791 114C518.014 114.803 515.663 115.204 512.739 115.204ZM514.029 107.894C517.584 107.894 520.45 106.891 522.629 104.884C524.808 102.82 525.897 100.011 525.897 96.456V95.596H513.513C511.162 95.596 509.27 96.112 507.837 97.144C506.404 98.1187 505.687 99.5807 505.687 101.53C505.687 103.479 506.432 105.027 507.923 106.174C509.414 107.321 511.449 107.894 514.029 107.894ZM567.902 115.204C563.831 115.204 560.133 114.344 556.808 112.624C553.54 110.904 550.931 108.41 548.982 105.142C547.09 101.874 546.144 97.9467 546.144 93.36V92.242C546.144 87.6553 547.09 83.7567 548.982 80.546C550.931 77.278 553.54 74.784 556.808 73.064C560.133 71.2867 563.831 70.398 567.902 70.398C571.973 70.398 575.441 71.1433 578.308 72.634C581.175 74.1247 583.468 76.1027 585.188 78.568C586.965 81.0333 588.112 83.7567 588.628 86.738L580.028 88.544C579.741 86.652 579.139 84.932 578.222 83.384C577.305 81.836 576.015 80.6033 574.352 79.686C572.689 78.7687 570.597 78.31 568.074 78.31C565.609 78.31 563.373 78.8833 561.366 80.03C559.417 81.1193 557.869 82.7247 556.722 84.846C555.575 86.91 555.002 89.4327 555.002 92.414V93.188C555.002 96.1693 555.575 98.7207 556.722 100.842C557.869 102.963 559.417 104.569 561.366 105.658C563.373 106.747 565.609 107.292 568.074 107.292C571.801 107.292 574.639 106.346 576.588 104.454C578.537 102.505 579.77 100.039 580.286 97.058L588.886 99.036C588.198 101.96 586.965 104.655 585.188 107.12C583.468 109.585 581.175 111.563 578.308 113.054C575.441 114.487 571.973 115.204 567.902 115.204ZM618.538 115.204C614.238 115.204 610.483 114.315 607.272 112.538C604.062 110.703 601.539 108.152 599.704 104.884C597.927 101.559 597.038 97.7173 597.038 93.36V92.328C597.038 87.9133 597.927 84.072 599.704 80.804C601.482 77.4787 603.947 74.9273 607.1 73.15C610.311 71.3153 614.009 70.398 618.194 70.398C622.265 70.398 625.82 71.3153 628.858 73.15C631.954 74.9273 634.362 77.4213 636.082 80.632C637.802 83.8427 638.662 87.598 638.662 91.898V95.252H606.068C606.183 98.9787 607.416 101.96 609.766 104.196C612.174 106.375 615.156 107.464 618.71 107.464C622.036 107.464 624.53 106.719 626.192 105.228C627.912 103.737 629.231 102.017 630.148 100.068L637.458 103.852C636.656 105.457 635.48 107.149 633.932 108.926C632.442 110.703 630.464 112.194 627.998 113.398C625.533 114.602 622.38 115.204 618.538 115.204ZM606.154 88.458H629.632C629.403 85.2473 628.256 82.7533 626.192 80.976C624.128 79.1413 621.434 78.224 618.108 78.224C614.783 78.224 612.06 79.1413 609.938 80.976C607.874 82.7533 606.613 85.2473 606.154 88.458Z" fill="#9A9A9A"/>
<path d="M683 52L685.824 65.1765L699 68L685.824 70.8235L683 84L680.176 70.8235L667 68L680.176 65.1765L683 52Z" fill="#B2B2B2"/>
<path opacity="0.95" d="M635 0L639 20L659 24L639 28L635 48L631 28L611 24L631 20L635 0Z" fill="white"/>
</svg>
